<svg xmlns="http://www.w3.org/2000/svg">
  <defs>
    <style>
      .ps{fill:none;stroke:currentColor;stroke-width:1.8;stroke-linecap:round;stroke-linejoin:round}
    </style>

    <!-- PySprint's mark: a terminal prompt becoming a fast learning path. -->
    <symbol id="ps-brand" viewBox="0 0 24 24"><g class="ps"><path d="M4 6.5 8.5 11 4 15.5"/><path d="M10.5 17.5h3.4c3.9 0 6.1-2.2 6.1-5.5s-2.2-5.5-6.1-5.5h-2.4"/><path d="m15.5 9.5 3-3 1.8 3.2"/></g></symbol>
    <symbol id="ps-terminal" viewBox="0 0 24 24"><g class="ps"><rect x="3" y="4" width="18" height="16" rx="3"/><path d="m7 9 3 3-3 3m6 0h4"/></g></symbol>
    <symbol id="ps-data" viewBox="0 0 24 24"><g class="ps"><path d="m12 3 8 4-8 4-8-4 8-4Z"/><path d="m4 12 8 4 8-4M4 17l8 4 8-4"/></g></symbol>
    <symbol id="ps-function" viewBox="0 0 24 24"><g class="ps"><path d="M15.5 4.5c-1.8-1.2-4.1-.2-4.5 2L8.2 19c-.4 2-2.7 3-4.5 1.8M6.5 10h8"/><path d="m16.5 11 4 6m0-6-4 6"/></g></symbol>
    <symbol id="ps-tools" viewBox="0 0 24 24"><g class="ps"><path d="m14.5 6.5 3-3a4 4 0 0 1-5 5l-7.7 7.7a2.1 2.1 0 0 0 3 3l7.7-7.7a4 4 0 0 0 5-5l-3 3"/><path d="m4 4 4 4"/></g></symbol>
    <symbol id="ps-api" viewBox="0 0 24 24"><g class="ps"><path d="M8 7V3m4 4V3m-6 8h8v2a4 4 0 0 1-4 4v4"/><path d="M17 8h2a2 2 0 0 1 2 2v5a2 2 0 0 1-2 2h-2"/></g></symbol>
    <symbol id="ps-automation" viewBox="0 0 24 24"><g class="ps"><rect x="4" y="7" width="16" height="13" rx="3"/><path d="M12 7V4m-2 0h4M8 12h.01M16 12h.01M8 16h8"/></g></symbol>
    <symbol id="ps-bolt" viewBox="0 0 24 24"><path class="ps" d="m13.5 2-9 12h7l-1 8 9-12h-7l1-8Z"/></symbol>
    <symbol id="ps-flame" viewBox="0 0 24 24"><path class="ps" d="M13.5 2.8c.7 4-2.7 5.2-2.7 8.1 0 1.2.7 2 1.7 2.5-.2-2.4 1.5-3.6 3.3-5.1 1.8 2.1 3.2 4.1 3.2 6.8a7 7 0 0 1-14 0c0-3.8 2-6.8 5-9.5-.1 2 .8 3.1 1.7 3.7.2-2.5.1-4.2 1.8-6.5Z"/></symbol>
    <symbol id="ps-sun" viewBox="0 0 24 24"><g class="ps"><circle cx="12" cy="12" r="4"/><path d="M12 2v2m0 16v2M4.9 4.9l1.4 1.4m11.4 11.4 1.4 1.4M2 12h2m16 0h2M4.9 19.1l1.4-1.4M17.7 6.3l1.4-1.4"/></g></symbol>
    <symbol id="ps-moon" viewBox="0 0 24 24"><path class="ps" d="M20.2 15.4A8.5 8.5 0 0 1 8.6 3.8 8.5 8.5 0 1 0 20.2 15.4Z"/></symbol>
    <symbol id="ps-book" viewBox="0 0 24 24"><g class="ps"><path d="M4 4.5h6a3 3 0 0 1 3 3V20a3 3 0 0 0-3-3H4V4.5Z"/><path d="M20 4.5h-4a3 3 0 0 0-3 3V20a3 3 0 0 1 3-3h4V4.5Z"/></g></symbol>
    <symbol id="ps-clock" viewBox="0 0 24 24"><g class="ps"><circle cx="12" cy="12" r="9"/><path d="M12 7v5l3 2"/></g></symbol>
    <symbol id="ps-quiz" viewBox="0 0 24 24"><g class="ps"><circle cx="12" cy="12" r="9"/><path d="M9.8 9a2.3 2.3 0 1 1 3.6 1.9c-.9.6-1.4 1-1.4 2.1m0 3h.01"/></g></symbol>
    <symbol id="ps-layers" viewBox="0 0 24 24"><g class="ps"><path d="m12 3 9 5-9 5-9-5 9-5Z"/><path d="m3 12 9 5 9-5m-18 5 9 5 9-5"/></g></symbol>
    <symbol id="ps-info" viewBox="0 0 24 24"><g class="ps"><circle cx="12" cy="12" r="9"/><path d="M12 11v6m0-10h.01"/></g></symbol>
    <symbol id="ps-globe" viewBox="0 0 24 24"><g class="ps"><circle cx="12" cy="12" r="9"/><path d="M3 12h18M12 3c3 3 3 15 0 18M12 3c-3 3-3 15 0 18"/></g></symbol>
    <symbol id="ps-warning" viewBox="0 0 24 24"><g class="ps"><path d="M10.2 4.2 2.8 18a2 2 0 0 0 1.8 3h14.8a2 2 0 0 0 1.8-3L13.8 4.2a2 2 0 0 0-3.6 0Z"/><path d="M12 9v4m0 4h.01"/></g></symbol>
    <symbol id="ps-spark" viewBox="0 0 24 24"><path class="ps" d="m12 2 1.8 6.2L20 10l-6.2 1.8L12 18l-1.8-6.2L4 10l6.2-1.8L12 2Zm7 14 .7 2.3L22 19l-2.3.7L19 22l-.7-2.3L16 19l2.3-.7L19 16Z"/></symbol>
    <symbol id="ps-play" viewBox="0 0 24 24"><path class="ps" d="m9 6 9 6-9 6V6Z"/></symbol>
    <symbol id="ps-target" viewBox="0 0 24 24"><g class="ps"><circle cx="11" cy="13" r="8"/><circle cx="11" cy="13" r="3"/><path d="m13 11 7-7m-4 0h4v4"/></g></symbol>
    <symbol id="ps-bulb" viewBox="0 0 24 24"><g class="ps"><path d="M8.5 16.5c-1.6-1.1-2.5-2.8-2.5-4.8a6 6 0 1 1 9.5 4.8c-.9.7-1.5 1.5-1.5 2.5h-4c0-1-.6-1.8-1.5-2.5Z"/><path d="M10 22h4"/></g></symbol>
    <symbol id="ps-eye" viewBox="0 0 24 24"><g class="ps"><path d="M2.5 12s3.5-6 9.5-6 9.5 6 9.5 6-3.5 6-9.5 6-9.5-6-9.5-6Z"/><circle cx="12" cy="12" r="2.5"/></g></symbol>
    <symbol id="ps-note" viewBox="0 0 24 24"><g class="ps"><path d="M5 3h14v18H5z"/><path d="M8 8h8m-8 4h8m-8 4h5"/></g></symbol>
    <symbol id="ps-brain" viewBox="0 0 24 24"><path class="ps" d="M9.5 4.2A3 3 0 0 0 4 6v1.1A3.5 3.5 0 0 0 3 13a3.5 3.5 0 0 0 3 5.3A3 3 0 0 0 12 18V6a3 3 0 0 0-2.5-1.8Zm5 0A3 3 0 0 1 20 6v1.1a3.5 3.5 0 0 1 1 5.9 3.5 3.5 0 0 1-3 5.3A3 3 0 0 1 12 18V6a3 3 0 0 1 2.5-1.8ZM7 9c2 0 3 1 3 3m7-3c-2 0-3 1-3 3"/></symbol>
    <symbol id="ps-trophy" viewBox="0 0 24 24"><g class="ps"><path d="M7 4h10v5a5 5 0 0 1-10 0V4Z"/><path d="M7 6H3v2a4 4 0 0 0 5 4m9-6h4v2a4 4 0 0 1-5 4m-4 2v4m-4 2h8"/></g></symbol>
    <symbol id="ps-swords" viewBox="0 0 24 24"><g class="ps"><path d="m4 3 7 7-2 2-7-7 2-2Zm7 9 8 8m1-17-7 7 2 2 7-7-2-2ZM13 12l-8 8m-3 2 4-4m16 4-4-4"/></g></symbol>
    <symbol id="ps-shield" viewBox="0 0 24 24"><path class="ps" d="M12 2 20 5v6c0 5.1-3.2 8.8-8 11-4.8-2.2-8-5.9-8-11V5l8-3Z"/></symbol>
    <symbol id="ps-lock" viewBox="0 0 24 24"><g class="ps"><rect x="4" y="10" width="16" height="11" rx="3"/><path d="M8 10V7a4 4 0 0 1 8 0v3m-4 4v3"/></g></symbol>
    <symbol id="ps-check" viewBox="0 0 24 24"><g class="ps"><circle cx="12" cy="12" r="9"/><path d="m8 12 2.5 2.5L16 9"/></g></symbol>
    <symbol id="ps-crown" viewBox="0 0 24 24"><path class="ps" d="m3 7 4 4 5-7 5 7 4-4-2 11H5L3 7Zm2 14h14"/></symbol>
    <symbol id="ps-star" viewBox="0 0 24 24"><path class="ps" d="m12 2.5 3 6.1 6.7 1-4.9 4.7 1.2 6.7-6-3.2L6 21l1.2-6.7-4.9-4.7 6.7-1 3-6.1Z"/></symbol>
    <symbol id="ps-orbit" viewBox="0 0 24 24"><g class="ps"><circle cx="12" cy="12" r="2"/><ellipse cx="12" cy="12" rx="10" ry="4.5" transform="rotate(35 12 12)"/><ellipse cx="12" cy="12" rx="10" ry="4.5" transform="rotate(-35 12 12)"/></g></symbol>
    <symbol id="ps-blocks" viewBox="0 0 24 24"><g class="ps"><rect x="3" y="13" width="8" height="8" rx="1"/><rect x="13" y="13" width="8" height="8" rx="1"/><rect x="8" y="3" width="8" height="8" rx="1"/></g></symbol>
    <symbol id="ps-rocket" viewBox="0 0 24 24"><g class="ps"><path d="M14 4c2.6-1.7 5.1-1.7 6-1.5.2.9.2 3.4-1.5 6L12 15l-4-4 6-7Z"/><path d="M8 11H4l-2 4 6 1m4-1 1 6 4-2v-4M15.5 7.5h.01M7 17l-3 3"/></g></symbol>
    <symbol id="ps-calendar" viewBox="0 0 24 24"><g class="ps"><rect x="3" y="5" width="18" height="16" rx="3"/><path d="M8 3v4m8-4v4M3 10h18m-13 4h2m4 0h2m-8 3h2"/></g></symbol>
    <symbol id="ps-path" viewBox="0 0 24 24"><g class="ps"><circle cx="5" cy="18" r="2"/><circle cx="19" cy="5" r="2"/><path d="M7 18h3c5 0 1-8 6-8h1"/></g></symbol>
    <symbol id="ps-focus" viewBox="0 0 24 24"><g class="ps"><path d="M8 3H4a1 1 0 0 0-1 1v4m13-5h4a1 1 0 0 1 1 1v4M8 21H4a1 1 0 0 1-1-1v-4m13 5h4a1 1 0 0 0 1-1v-4"/><circle cx="12" cy="12" r="3"/></g></symbol>
    <symbol id="ps-wallet" viewBox="0 0 24 24"><g class="ps"><path d="M4 6h14a2 2 0 0 1 2 2v11H4a2 2 0 0 1-2-2V6a3 3 0 0 1 3-3h12"/><path d="M15 11h7v5h-7a2.5 2.5 0 0 1 0-5Z"/></g></symbol>
    <symbol id="ps-checklist" viewBox="0 0 24 24"><g class="ps"><path d="m4 7 2 2 3-4m2 3h9M4 14l2 2 3-4m2 3h9M4 21l2-2m0 2-2-2m7 1h9"/></g></symbol>
    <symbol id="ps-chart" viewBox="0 0 24 24"><g class="ps"><path d="M4 20V10h4v10m4 0V4h4v16m4 0V7"/><path d="M2 20h20"/></g></symbol>
    <symbol id="ps-webhook" viewBox="0 0 24 24"><path class="ps" d="M8.5 15.5a4 4 0 1 1-2.8-6.8m9.8-.2a4 4 0 1 1 2.8 6.8M9 19a4 4 0 0 0 6 0M9 5a4 4 0 0 1 6 0m-8 9 5-8 5 8H7Z"/></symbol>
    <symbol id="ps-folder" viewBox="0 0 24 24"><path class="ps" d="M3 6a2 2 0 0 1 2-2h5l2 3h7a2 2 0 0 1 2 2v10H3V6Z"/></symbol>
    <symbol id="ps-broom" viewBox="0 0 24 24"><g class="ps"><path d="m15 3-5 11"/><path d="M7 12c4 0 7 2 9 5l-3 4H4l-1-4 4-5Z"/></g></symbol>
    <symbol id="ps-cloud" viewBox="0 0 24 24"><g class="ps"><path d="M7 18h11a4 4 0 0 0 .5-8A7 7 0 0 0 5 11.5 3.5 3.5 0 0 0 7 18Z"/><path d="M9 21h.01M13 21h.01M17 21h.01"/></g></symbol>
    <symbol id="ps-receipt" viewBox="0 0 24 24"><g class="ps"><path d="M5 3h14v19l-3-2-2 2-2-2-2 2-2-2-3 2V3Z"/><path d="M8 8h8m-8 4h8m-8 4h5"/></g></symbol>
    <symbol id="ps-ticket" viewBox="0 0 24 24"><g class="ps"><path d="M3 8a2 2 0 0 0 0 4v4h18v-4a2 2 0 0 0 0-4V4H3v4Z"/><path d="M9 4v12"/></g></symbol>
    <symbol id="ps-megaphone" viewBox="0 0 24 24"><g class="ps"><path d="m4 10 14-6v16L4 14v-4Z"/><path d="M7 15v4a2 2 0 0 0 4 0v-2"/></g></symbol>
    <symbol id="ps-cart" viewBox="0 0 24 24"><g class="ps"><path d="M3 4h2l2.5 11h10l3-7H6"/><circle cx="9" cy="20" r="1"/><circle cx="17" cy="20" r="1"/></g></symbol>
    <symbol id="ps-graduation" viewBox="0 0 24 24"><g class="ps"><path d="m2 9 10-5 10 5-10 5L2 9Z"/><path d="M6 11.5V16c3 3 9 3 12 0v-4.5M22 9v7"/></g></symbol>
    <symbol id="ps-database" viewBox="0 0 24 24"><g class="ps"><ellipse cx="12" cy="5" rx="8" ry="3"/><path d="M4 5v7c0 1.7 3.6 3 8 3s8-1.3 8-3V5"/><path d="M4 12v7c0 1.7 3.6 3 8 3s8-1.3 8-3v-7"/></g></symbol>
    <symbol id="ps-truck" viewBox="0 0 24 24"><g class="ps"><path d="M3 5h11v12H3V5Zm11 5h4l3 3v4h-7v-7Z"/><circle cx="7" cy="19" r="2"/><circle cx="18" cy="19" r="2"/></g></symbol>
    <symbol id="ps-bank" viewBox="0 0 24 24"><g class="ps"><path d="m3 9 9-6 9 6H3Zm2 3h14M6 12v6m4-6v6m4-6v6m4-6v6M3 21h18"/></g></symbol>
    <symbol id="ps-gamepad" viewBox="0 0 24 24"><g class="ps"><path d="M8 7h8a5 5 0 0 1 4.8 3.7l1 4a3 3 0 0 1-5.2 2.7L15 15H9l-1.6 2.4a3 3 0 0 1-5.2-2.7l1-4A5 5 0 0 1 8 7Z"/><path d="M7 10v4m-2-2h4m7-1h.01m2 2h.01"/></g></symbol>
    <symbol id="ps-search" viewBox="0 0 24 24"><g class="ps"><circle cx="10.5" cy="10.5" r="6.5"/><path d="m15.5 15.5 5 5"/></g></symbol>
    <symbol id="ps-bell" viewBox="0 0 24 24"><g class="ps"><path d="M5 17h14l-2-3V9a5 5 0 0 0-10 0v5l-2 3Z"/><path d="M10 20h4"/></g></symbol>
    <symbol id="ps-mail" viewBox="0 0 24 24"><g class="ps"><rect x="3" y="5" width="18" height="14" rx="2"/><path d="m4 7 8 6 8-6"/></g></symbol>
    <symbol id="ps-monitor" viewBox="0 0 24 24"><g class="ps"><rect x="2" y="3" width="20" height="14" rx="2"/><path d="M8 21h8m-4-4v4m-6-8 3-3-3-3m6 6h5"/></g></symbol>
    <symbol id="ps-cleanup" viewBox="0 0 24 24"><g class="ps"><path d="M4 5h16M9 5V3h6v2m3 0-1 16H7L6 5"/><path d="M10 9v8m4-8v8"/></g></symbol>
  </defs>
</svg>
